# xmcd
#
# Track frame offsets:
#	150
#	17500
#	50505
#	67957
#	89047
#	107847
#	140550
#	155542
#	177100
#	208465
#
# Disc length: 3066 seconds
#
# Revision: 1
# Processed by: cddbd v1.5.2PL0 Copyright (c) Steve Scherf et al.
# Submitted via: audiograbber 1.83.01
#
DISCID=8e0bf80a
DTITLE=Jimmy "Duck" Holmes - Done Got Tired of Tryin'
DYEAR=2006
DGENRE=
TTITLE0=Cherry Ball
TTITLE1=Pencil and Paper
TTITLE2=Baby Gal
TTITLE3=Biscuit Roller
TTITLE4=Blue Front Breakdown
TTITLE5=Train I Ride
TTITLE6=Catfish Blues
TTITLE7=Wake Up, Woman
TTITLE8=Could've Been Married
TTITLE9=It's Over
EXTD=
EXTT0=
EXTT1=
EXTT2=
EXTT3=
EXTT4=
EXTT5=
EXTT6=
EXTT7=
EXTT8=
EXTT9=
PLAYORDER=
